<svg xmlns="http://www.w3.org/2000/svg" viewBox="0 0 24 24" fill="currentColor">
  <path d="M12 .5C5.73.5.5 5.73.5 12c0 5.08 3.29 9.41 7.85 10.94.57.1.78-.24.78-.54v-1.92c-3.2.7-3.88-1.55-3.88-1.55-.52-1.33-1.28-1.68-1.28-1.68-1.05-.72.08-.71.08-.71 1.16.08 1.77 1.2 1.77 1.2 1.03 1.76 2.7 1.25 3.36.95.1-.74.4-1.25.73-1.54-2.55-.29-5.24-1.28-5.24-5.68 0-1.26.45-2.28 1.2-3.08-.12-.29-.52-1.45.12-3.02 0 0 .98-.32 3.2 1.22.93-.26 1.92-.38 2.9-.39.98.01 1.97.13 2.9.39 2.22-1.55 3.2-1.22 3.2-1.22.64 1.57.24 2.73.12 3.02.75.8 1.2 1.82 1.2 3.08 0 4.41-2.7 5.39-5.26 5.68.42.36.79 1.07.79 2.16v3.2c0 .31.21.65.79.54A10.47 10.47 0 0023.5 12c0-6.27-5.23-11.5-11.5-11.5z"/>
</svg>
