<svg xmlns="http://www.w3.org/2000/svg" viewBox="0 0 24 24" fill="currentColor">
  <path d="M23.32 5.75c-.81.36-1.68.6-2.6.71a4.47 4.47 0 001.96-2.47c-.88.52-1.85.89-2.88 1.1A4.46 4.46 0 0016.3 4c-2.46 0-4.46 2-4.46 4.46 0 .35.04.69.12 1.02-3.7-.18-6.98-1.96-9.18-4.65a4.42 4.42 0 00-.6 2.24c0 1.54.78 2.89 1.96 3.69-.72-.02-1.4-.22-2-.55v.06c0 2.14 1.52 3.92 3.54 4.33-.37.1-.76.15-1.16.15-.29 0-.57-.03-.85-.08.57 1.78 2.22 3.07 4.18 3.11a8.94 8.94 0 01-5.55 1.91c-.36 0-.72-.02-1.08-.06a12.63 12.63 0 006.84 2.01c8.2 0 12.68-6.79 12.68-12.68 0-.19-.01-.37-.02-.56a9.04 9.04 0 002.22-2.3z"/>
</svg>
